<?xml version="1.0" encoding="UTF-8"?>
<svg id="WORLD_SCOUTING" xmlns="http://www.w3.org/2000/svg" viewBox="0 0 335.15702 129.22677">
  <defs>
    <style>
      .cls-1 {
        fill: #fff;
        stroke-width: 0px;
      }
    </style>
  </defs>
  <g>
    <g>
      <g>
        <path class="cls-1" d="M117.54453,36.20312h6.21401l4.06836,16.12641c1.59041-6.21378,3.66166-10.76322,4.43867-16.12641h5.91785c.77678,5.36319,2.92196,9.91264,4.54945,16.16349l3.95759-16.16349h5.881l-6.91663,25.37327-6.02885.03696c-1.47963-6.76867-3.18104-10.91119-4.54945-15.4976-1.3684,4.58641-3.03296,8.72893-4.51237,15.46063h-6.02908l-6.99056-25.37327Z"/>
        <path class="cls-1" d="M166.55326,35.53734c7.65656,0,13.42633,5.659,13.42633,13.31545,0,7.73026-5.73292,13.38937-13.42633,13.38937s-13.42633-5.65912-13.42633-13.38937c0-7.65645,5.77-13.31545,13.42633-13.31545ZM174.17252,48.85279c0-4.66045-3.10666-8.0263-7.61926-8.0263-4.51237,0-7.61926,3.36585-7.61926,8.0263,0,4.69741,3.14397,8.10023,7.61926,8.10023,4.47552,0,7.61926-3.40282,7.61926-8.10023Z"/>
        <path class="cls-1" d="M183.30918,36.20312h11.50315c5.58508,0,9.20989,2.996,9.20989,7.76734,0,4.06859-2.44111,6.73171-6.17693,7.73037,1.14663,2.58907,2.99612,4.62337,5.58508,4.62337.48085,0,.81386-.03696,1.03563-.07392v5.32611c-.33277.07392-1.03563.14796-1.51648.14796-4.62337,0-7.61949-1.88633-10.31945-7.98922l-.7397-1.66445c-1.77556.11089-2.73704.8507-2.73704,2.66311v6.84259h-5.84416v-25.37327ZM194.44248,47.33631c3.14397,0,3.80951-1.73849,3.80951-3.06993,0-2.07137-1.33156-3.07004-3.88367-3.07004h-5.21499v6.13997h5.28915Z"/>
        <path class="cls-1" d="M208.16497,36.20312h5.84392v20.12108h11.651v5.25219h-17.49493v-25.37327Z"/>
        <path class="cls-1" d="M228.8041,36.20315h10.09767c7.65633,0,12.94548,5.43711,12.94548,12.64967,0,7.28648-5.28915,12.7236-12.94548,12.7236h-10.09767v-25.37327ZM238.38384,56.50915c4.80853,0,7.65633-2.95893,7.65633-7.65634,0-4.62349-2.88489-7.58241-7.65633-7.58241h-3.73559v15.23875h3.73559Z"/>
      </g>
      <g>
        <path class="cls-1" d="M124.03972,84.44269c-.07392.33277-.111.59185-.111,1.07271,0,2.10811,1.96049,3.58774,5.2523,3.58774,3.47674,0,5.21522-1.33156,5.21522-3.32889,0-1.18371-.66601-1.88633-3.58797-2.55211l-3.73559-.8507c-5.77-1.29471-8.17426-3.51382-8.17426-7.73037,0-4.43845,3.92074-7.65634,9.91275-7.65634,6.36162,0,9.43167,2.70008,10.50414,7.21256l-5.51092,1.4794c-.36985-2.663-1.96026-4.10556-5.17838-4.10556-2.44111,0-4.03152,1.10967-4.03152,2.81108,0,1.66445.99855,2.18215,3.73582,2.81085l3.77267.8507c5.32623,1.18371,8.02618,3.32889,8.02618,7.39749,0,4.9193-4.43844,8.24819-10.98522,8.24819-6.87955,0-10.83738-3.14397-10.83738-7.98911,0-1.33156.14808-2.21934.44401-2.99612l5.28915,1.73849Z"/>
        <path class="cls-1" d="M167.31507,84.73861c-1.36863,5.36307-4.95614,8.95081-12.09478,8.95081-7.58241,0-12.68663-5.28915-12.68663-13.38926,0-7.87834,5.2523-13.31545,13.05648-13.31545,6.84271,0,10.9113,3.51382,10.98522,9.32078l-5.77,1.25763c.14785-3.62482-1.4794-5.43723-5.54823-5.43723-4.25352,0-6.87955,3.51382-6.87955,8.17427,0,4.8083,2.70019,8.24819,7.06471,8.24819,3.62482,0,5.51092-1.73849,6.21378-4.58652l5.659.77678Z"/>
        <path class="cls-1" d="M182.77651,66.98472c7.65656,0,13.42633,5.659,13.42633,13.31545,0,7.73026-5.73292,13.38926-13.42633,13.38926s-13.42633-5.659-13.42633-13.38926c0-7.65645,5.77-13.31545,13.42633-13.31545ZM190.39577,80.30017c0-4.66045-3.10666-8.0263-7.61926-8.0263-4.51237,0-7.61926,3.36585-7.61926,8.0263,0,4.69729,3.14397,8.10011,7.61926,8.10011,4.47552,0,7.61926-3.40282,7.61926-8.10011Z"/>
        <path class="cls-1" d="M205.19143,67.6505v15.49771c0,2.88489,1.92341,5.21499,5.2523,5.21499,3.43966,0,5.25207-2.33011,5.25207-5.21499v-15.49771h5.73315v15.27571c0,6.32478-3.92074,10.76322-10.98522,10.76322s-11.09623-4.1796-11.09623-10.76322v-15.27571h5.84392Z"/>
        <path class="cls-1" d="M231.82301,72.90268h-7.43456v-5.25219h20.71282v5.25219h-7.43433v20.12097h-5.84392v-20.12097Z"/>
        <path class="cls-1" d="M248.24546,67.6505h5.84416v25.37315h-5.84416v-25.37315Z"/>
        <path class="cls-1" d="M258.71299,67.6505h5.51115c.62893,3.69874,8.17426,11.05904,10.72637,14.24008v-14.24008h5.73292v25.37315h-5.51092c-.48085-4.06859-7.76734-10.98523-10.72637-14.60981v14.60981h-5.73315v-25.37315Z"/>
        <path class="cls-1" d="M298.58552,78.41383c2.21911.44378,3.84659.55478,7.1384.55478h3.58774v14.05504h-3.58774l-.66578-2.84804c-1.88633,2.40426-4.66045,3.51382-8.24819,3.51382-8.10011,0-12.79763-6.06593-12.79763-13.24141,0-8.544,6.36185-13.4633,13.31556-13.4633,6.25085,0,9.72759,2.58907,11.28115,7.0646l-5.77,1.29448c-.62893-2.07126-2.44134-3.21789-5.51115-3.21789-4.4016,0-7.50849,3.03296-7.50849,8.50704,0,5.1413,3.36597,7.91542,7.43456,7.91542,3.36574,0,5.47407-1.62748,6.36162-4.5126-2.73704.03708-4.77122-.18493-6.76855-.66578l1.73848-4.95614Z"/>
      </g>
    </g>
    <g>
      <path class="cls-1" d="M257.36426,36.70835c1.6469,0,2.98662,1.33973,2.98662,2.98653s-1.33972,2.98653-2.98662,2.98653c-1.64673,0-2.98645-1.33973-2.98645-2.98653s1.33972-2.98653,2.98645-2.98653M257.36426,36.20317c-1.92826,0-3.49162,1.5633-3.49162,3.49171s1.56336,3.49171,3.49162,3.49171c1.92843,0,3.49179-1.5633,3.49179-3.49171s-1.56336-3.49171-3.49179-3.49171h0Z"/>
      <path class="cls-1" d="M256.13939,38.0467h1.48574c.72137,0,1.18955.38697,1.18955,1.00324,0,.5255-.31529.86948-.79781.99846.1481.33441.38698.59716.72137.59716.06211,0,.10512-.00477.13376-.00955v.68793c-.04298.00955-.13376.01911-.19587.01911-.59715,0-.98413-.24364-1.33286-1.0319l-.09554-.21498c-.22933.01432-.35351.10988-.35351.34397v.8838h-.75483v-3.27724ZM257.57737,39.48468c.40607,0,.49204-.22454.49204-.39652,0-.26754-.17198-.39653-.50161-.39653h-.67357v.79305h.68314Z"/>
    </g>
  </g>
  <path class="cls-1" d="M64.61339,41.75684c.89336,4.19784,1.11257,12.47941,1.11257,25.07287,0,2.09288-.00713,3.95757-.0226,5.63535h-2.17993c-.01546-1.67778-.0226-3.54247-.0226-5.63535,0-12.59347.21922-20.87503,1.11257-25.07287ZM103.38143,64.61343c0,21.41094-17.35704,38.76801-38.76804,38.76801s-38.76802-17.35707-38.76802-38.76801,17.35704-38.76807,38.76802-38.76807,38.76804,17.357,38.76804,38.76807ZM58.4321,77.17083h-2.80857c-.56734,1.88346-1.76456,3.31248-3.46405,3.77907-1.37575.37804-2.80766.03519-4.07373-.80697-.8926,2.41142.74151,5.26759,4.04036,5.26759,2.8521,0,5.54795-2.58197,6.306-8.23969ZM72.435,87.65867c-2.35452-2.98178-3.56978-6.32104-3.98271-10.48783h-2.82706c-.14124,5.38592-.44646,8.30273-1.01185,11.23543-.56537-2.9327-.87061-5.84951-1.01183-11.23543h-2.82722c-.41277,4.16679-1.62819,7.50605-3.98256,10.48783,0,0,3.27488,3.85687,7.82162,6.13593,4.54674-2.27906,7.82162-6.13593,7.82162-6.13593ZM81.14103,80.14293c-1.26608.84216-2.69797,1.18501-4.07373.80697-1.69948-.46659-2.89669-1.89561-3.46405-3.77907h-2.80856c.75803,5.65772,3.45388,8.23969,6.30598,8.23969,3.29885,0,4.93296-2.85617,4.04036-5.26759ZM92.86376,64.6143c0-5.27854-4.30932-9.55706-9.62517-9.55706-7.38382,0-12.20634,7.93811-12.62125,17.40782h-2.31295c.38228-10.92297,6.2353-15.17604,6.2353-22.42238,0-7.83801-8.06024-14.90238-9.9263-16.75672-1.86604,1.85434-9.92645,8.91871-9.92645,16.75672,0,7.24634,5.85303,11.49941,6.23531,22.42238h-2.31282c-.4149-9.46971-5.23742-17.40782-12.62125-17.40782-5.31584,0-9.62517,4.27851-9.62517,9.55706.00015,4.92174,3.74713,8.97514,8.56314,9.50003-1.78598-3.58554-.24213-7.25122,3.26001-7.9484,3.08695-.61411,6.6907,1.54248,7.61076,6.29914h-2.92854c-.2849.38292-.47846.85138-.47846,1.38414,0,.53217.19356,1.00116.47846,1.38348h23.48989c.28488-.38231.47861-.85131.47861-1.38348,0-.53277-.19373-1.00123-.47861-1.38414h-2.92841c.92006-4.75666,4.52383-6.91324,7.61076-6.29914,3.50213.69718,5.04598,4.36286,3.26002,7.9484,4.81601-.52489,8.56297-4.57829,8.56312-9.50003Z"/>
</svg>